<?xml version="1.0" encoding="UTF-8" standalone="no"?>
<!DOCTYPE svg PUBLIC "-//W3C//DTD SVG 1.1//EN" "http://www.w3.org/Graphics/SVG/1.1/DTD/svg11.dtd">
<svg width="100%" height="100%" viewBox="0 0 564 247" version="1.1" xmlns="http://www.w3.org/2000/svg" xmlns:xlink="http://www.w3.org/1999/xlink" xml:space="preserve" xmlns:serif="http://www.serif.com/" style="fill-rule:evenodd;clip-rule:evenodd;stroke-linejoin:round;stroke-miterlimit:2;">
    <path d="M0,246.46L0,16.101L138.621,16.101L138.621,43.285L30.292,43.285L30.292,113.838L131.429,113.838L131.429,140.866L30.292,140.866L30.292,219.276L143.067,219.276L143.067,246.46L0,246.46Z" style="fill:white;fill-rule:nonzero;"/>
    <rect x="181.367" y="16.101" width="35.574" height="230.359" style="fill:white;"/>
    <path d="M378.49,246.46L335.394,246.46C335.394,246.46 250.657,156.917 233.709,135.77C229.72,130.792 229.845,124.584 233.709,119.578C249.108,99.634 326.099,16.101 326.099,16.101L368.632,16.101L368.632,17.426L268.919,127.085L378.49,246.46Z" style="fill:white;fill-rule:nonzero;"/>
    <path d="M413.001,228.337L412.999,228.335L413.002,228.331L413.001,228.337Z" style="fill:rgb(35,31,32);"/>
    <path d="M413.07,228.405L412.993,228.395L413.001,228.337L413.07,228.405Z" style="fill:rgb(35,31,32);"/>
    <path d="M396.289,211.679L317.191,132.599L449.79,0L467.468,17.678L467.429,17.716L467.47,17.722L442.309,199.025L528.012,113.322L466.591,51.901L466.678,51.814L466.58,51.901L470.613,20.333L483.727,33.682L545.689,95.644L545.746,95.588L563.423,113.266L430.677,246.012L413.001,228.337L438.171,46.975L352.645,132.501L413.272,193.128L408.89,224.276L396.289,211.679L398.699,209.242L396.289,211.679Z" style="fill:white;"/>
</svg>
