<?xml version="1.0" encoding="UTF-8" standalone="no"?><!DOCTYPE svg PUBLIC "-//W3C//DTD SVG 1.1//EN" "http://www.w3.org/Graphics/SVG/1.1/DTD/svg11.dtd"><svg width="100%" height="100%" viewBox="0 0 1314 602" version="1.1" xmlns="http://www.w3.org/2000/svg" xmlns:xlink="http://www.w3.org/1999/xlink" xml:space="preserve" xmlns:serif="http://www.serif.com/" style="fill-rule:evenodd;clip-rule:evenodd;stroke-linejoin:round;stroke-miterlimit:2;"><g id="g1"></g><g id="g11" serif:id="g1"><g id="g4"><path id="path6" d="M458.934,600.801c0.353,-0.143 0.93,-0.143 1.282,-0c0.353,0.142 0.064,0.258 -0.641,0.258c-0.705,0 -0.994,-0.116 -0.641,-0.258Zm28.758,-0.012c0.371,-0.148 0.813,-0.13 0.984,0.041c0.17,0.17 -0.133,0.291 -0.674,0.269c-0.597,-0.025 -0.719,-0.146 -0.31,-0.31l0,0Zm-472.907,-32.456c-2.205,-0.668 -3.92,-2.038 -4.597,-3.673c-0.846,-2.044 -0.705,-7.65 0.289,-11.446c0.438,-1.673 21.808,-67.23 47.49,-145.684c25.681,-78.453 47.285,-144.835 48.009,-147.515c1.454,-5.382 1.767,-11.781 0.679,-13.886c-1.66,-3.209 -5.302,-5.094 -9.843,-5.094c-1.078,0 -1.959,-0.153 -1.959,-0.34c0,-1.593 1.944,-6.017 2.807,-6.387c0.572,-0.245 23.085,-5.092 50.029,-10.769c51.413,-10.834 56.36,-11.663 60.839,-10.189c3.252,1.07 5.728,3.013 8.418,6.605c1.392,1.858 19.792,32.981 40.89,69.162c21.097,36.18 38.491,65.786 38.653,65.79c0.485,0.013 47.62,-144.073 48.494,-148.241c0.476,-2.271 0.708,-5.148 0.565,-7.021c-0.434,-5.688 -2.933,-8.017 -9.413,-8.771l-3.148,-0.367l0.985,-3.2c0.757,-2.46 1.248,-3.261 2.122,-3.462c1.068,-0.245 35.043,-7.402 70.902,-14.935c17.847,-3.749 24.238,-4.818 28.726,-4.806c3.514,0.009 7.039,1.36 7.939,3.041c0.742,1.386 0.766,5.246 0.052,8.23c-0.303,1.269 -24.521,75.599 -53.817,165.176l-53.265,162.869l-24.835,5.236c-13.66,2.879 -27.044,5.496 -29.743,5.814c-10.116,1.191 -15.421,-1.258 -21.363,-9.864c-1.424,-2.063 -22.378,-37.915 -46.563,-79.671c-47.172,-81.442 -45.398,-78.407 -45.674,-78.131c-0.332,0.332 -57.086,173.418 -58.219,177.553c-1.434,5.232 -1.498,11.489 -0.142,13.81c1.309,2.242 3.554,3.429 7.686,4.065c1.921,0.296 3.55,0.59 3.62,0.653c0.201,0.184 -1.467,5.64 -1.841,6.02c-0.186,0.189 -4.839,1.299 -10.341,2.466c-45.838,9.722 -76.143,16.029 -80.139,16.677c-5.034,0.816 -12.075,0.957 -14.292,0.285l0,0Zm305.134,-6.518c0.353,-0.142 0.93,-0.142 1.282,-0c0.353,0.142 0.064,0.259 -0.641,0.259c-0.705,-0 -0.994,-0.117 -0.641,-0.259Zm51.81,-0c0.353,-0.142 0.93,-0.142 1.282,-0c0.353,0.142 0.064,0.259 -0.641,0.259c-0.705,-0 -0.994,-0.117 -0.641,-0.259Zm15.934,-0.524c0.37,-0.148 0.813,-0.13 0.983,0.041c0.171,0.17 -0.132,0.292 -0.673,0.269c-0.598,-0.024 -0.719,-0.146 -0.31,-0.31l0,0Zm11.285,-0.513c0.371,-0.148 0.813,-0.13 0.984,0.041c0.17,0.17 -0.133,0.292 -0.674,0.269c-0.597,-0.024 -0.719,-0.146 -0.31,-0.31l0,0Zm-4.728,-87.638c-2.635,-1.374 -2.944,-2.147 -2.66,-6.654c0.233,-3.708 3.898,-15.209 38.001,-119.266c20.758,-63.339 38.57,-117.817 39.583,-121.061c1.368,-4.385 1.857,-6.894 1.903,-9.775c0.093,-5.813 -1.717,-7.988 -7.112,-8.544c-2.645,-0.273 -2.874,-0.395 -2.592,-1.378c0.17,-0.593 0.451,-1.733 0.626,-2.533c0.174,-0.8 0.583,-1.557 0.908,-1.682c0.702,-0.269 218.018,-45.262 218.104,-45.156c0.214,0.266 -6.627,20.943 -8.158,24.657c-5.225,12.676 -10.589,17.223 -24.475,20.75c-3.244,0.824 -26.213,5.57 -51.04,10.545c-24.828,4.976 -45.474,9.229 -45.881,9.451c-0.753,0.412 -20.623,60.253 -20.075,60.459c0.163,0.061 25.514,-5.379 56.338,-12.089c30.823,-6.71 56.042,-12.136 56.042,-12.057c-0,0.692 -12.058,34.226 -12.877,35.81c-2.645,5.122 -6.638,8.254 -13.519,10.606c-2.269,0.776 -20.862,5.121 -41.317,9.657c-40.187,8.91 -43.711,9.818 -50.205,12.931c-5.413,2.594 -10.281,7.278 -12.836,12.351c-1.499,2.977 -24.237,71.15 -23.88,71.6c0.156,0.197 110.189,-22.968 118.993,-25.052c8.299,-1.963 15.599,-4.337 20.251,-6.583c3.106,-1.5 4.9,-2.907 9.303,-7.297c5.181,-5.164 5.606,-5.469 8.422,-6.034c1.631,-0.328 3.017,-0.538 3.081,-0.468c0.063,0.071 -2.971,9.824 -6.744,21.673c-7.932,24.92 -9.862,29.413 -14.46,33.664c-3.55,3.282 -7.917,5.504 -14.888,7.575c-5.258,1.562 -11.435,2.885 -136.908,29.318c-76.764,16.171 -78.343,16.452 -81.928,14.582Zm258.811,-53.055c-0.951,-0.238 -2.22,-0.926 -2.821,-1.529c-0.959,-0.964 -1.078,-1.61 -0.978,-5.31c0.11,-4.067 1.46,-8.315 38.824,-122.196c21.29,-64.891 39.187,-119.71 39.769,-121.82c1.234,-4.468 1.365,-9.059 0.331,-11.535c-0.891,-2.131 -2.88,-3.225 -6.677,-3.671c-2.626,-0.308 -2.848,-0.433 -2.548,-1.42c0.721,-2.367 1.717,-4.417 2.146,-4.417c0.249,0 39.907,-8.323 88.129,-18.496c117.049,-24.694 113.284,-23.963 129.346,-25.124c21.733,-1.571 37.241,4.213 43.624,16.272c8.764,16.554 3.286,48.406 -12.841,74.67c-12.836,20.905 -29.659,36.443 -50.387,46.538c-9.102,4.433 -14.428,6.555 -27.038,10.773l-10.102,3.38l16.932,29.48c9.312,16.213 17.436,30.029 18.053,30.701c3.46,3.77 8.6,4.018 22.899,1.105c5.488,-1.118 10.061,-1.95 10.161,-1.85c0.341,0.341 -10.243,31.817 -11.953,35.551c-3.264,7.123 -8.943,11.49 -18.447,14.184c-4.683,1.327 -42.373,9.36 -50.723,10.81c-2.505,0.435 -6.451,0.791 -8.767,0.791c-7.259,0 -11.086,-1.823 -14.358,-6.841c-0.949,-1.457 -11.015,-23.77 -22.368,-49.585c-11.353,-25.816 -20.786,-47.106 -20.963,-47.311c-0.376,-0.438 -28.666,5.449 -29.279,6.093c-0.536,0.564 -32.6,98.227 -33.895,103.241c-0.54,2.09 -0.981,4.86 -0.981,6.155c0.002,4.712 2.926,7.739 7.48,7.74c1.152,0.001 2.23,0.137 2.396,0.302c0.568,0.568 -1.413,4.962 -2.439,5.41c-0.564,0.247 -13.722,3.111 -29.239,6.366c-59.433,12.464 -59.525,12.481 -63.286,11.543Zm159.431,-187.499c34.104,-7.204 41.566,-9.305 53.685,-15.114c10.479,-5.022 17.558,-10.263 22.925,-16.97c6.421,-8.026 9.524,-16.59 9.981,-27.545c0.33,-7.938 -0.179,-10.419 -2.756,-13.431c-2.871,-3.353 -6.174,-4.333 -14.547,-4.316c-8.591,0.018 -13.363,0.796 -42.01,6.851c-30.136,6.37 -30.894,6.534 -31.074,6.729c-0.088,0.095 -5.174,15.523 -11.303,34.285c-6.129,18.762 -11.246,34.286 -11.371,34.498c-0.125,0.211 0.057,0.384 0.406,0.384c0.349,0 12.078,-2.417 26.064,-5.371Zm146.841,122.877c-2.068,-0.526 -4,-2.255 -4.429,-3.961c-0.174,-0.695 -0.063,-2.693 0.247,-4.44c0.309,-1.747 17.76,-55.807 38.779,-120.134c21.02,-64.326 38.779,-118.887 39.466,-121.246c1.409,-4.84 1.631,-9.964 0.543,-12.567c-0.832,-1.991 -3.038,-3.187 -6.801,-3.686l-2.621,-0.348l0.8,-2.504c0.441,-1.377 1.161,-2.609 1.602,-2.739c0.441,-0.13 22.731,-4.855 49.533,-10.5c26.803,-5.645 81.609,-17.196 121.792,-25.669c40.182,-8.473 73.16,-15.304 73.285,-15.18c0.414,0.414 -8.214,27.675 -9.791,30.935c-1.88,3.884 -5.687,7.639 -9.909,9.77c-5.714,2.885 -11.191,4.34 -36.105,9.595c-95.812,20.21 -100.73,21.264 -101.115,21.67c-0.497,0.523 -19.946,60.314 -19.7,60.56c0.108,0.108 30.001,-6.086 66.428,-13.765c36.428,-7.679 66.324,-13.871 66.436,-13.759c0.346,0.346 -10.229,32.86 -11.537,35.471c-2.533,5.056 -7.929,8.692 -16.414,11.061c-2.116,0.591 -24.161,5.356 -48.989,10.588c-24.828,5.233 -47.624,10.199 -50.659,11.036c-8.468,2.334 -13.722,5.114 -18.387,9.727c-2.897,2.865 -4.379,4.845 -5.766,7.703c-1.501,3.093 -26.746,79.824 -31.452,95.599c-1.33,4.457 -1.442,5.858 -0.688,8.572c0.763,2.747 2.439,4.013 6.204,4.686c1.806,0.322 3.365,0.646 3.464,0.719c0.099,0.073 -0.189,1.245 -0.641,2.603l-0.821,2.47l-42.254,8.903c-23.24,4.896 -43.727,8.983 -45.527,9.083c-1.8,0.099 -4.037,-0.014 -4.973,-0.253Zm104.095,-34.533c0.126,-0.07 1.953,-1.744 4.061,-3.719l3.834,-3.591l-3.578,3.719c-1.967,2.046 -3.794,3.72 -4.061,3.72c-0.266,-0 -0.381,-0.058 -0.256,-0.129l0,0Zm-119.441,-227.986c0.499,-0.13 1.192,-0.121 1.539,0.019c0.348,0.141 -0.061,0.247 -0.907,0.237c-0.847,-0.01 -1.131,-0.125 -0.632,-0.256l0,0Zm-180.799,-17.436c0.37,-0.148 0.812,-0.13 0.983,0.041c0.17,0.17 -0.133,0.291 -0.674,0.269c-0.597,-0.025 -0.719,-0.146 -0.309,-0.31l-0,0Zm35.362,-0.502c0.353,-0.142 0.93,-0.142 1.283,-0c0.353,0.142 0.064,0.259 -0.641,0.259c-0.706,-0 -0.994,-0.117 -0.642,-0.259Zm85.699,-73.879c0.37,-0.148 0.812,-0.13 0.983,0.041c0.17,0.17 -0.133,0.292 -0.674,0.269c-0.597,-0.024 -0.719,-0.146 -0.309,-0.31l-0,0Zm102.081,0c0.37,-0.148 0.812,-0.13 0.983,0.041c0.17,0.17 -0.133,0.292 -0.673,0.269c-0.598,-0.024 -0.72,-0.146 -0.31,-0.31l-0,0Zm-89.802,-0.502c0.352,-0.142 0.93,-0.142 1.282,0c0.353,0.142 0.064,0.259 -0.641,0.259c-0.705,-0 -0.994,-0.117 -0.641,-0.259Zm77.458,0c0.353,-0.142 0.93,-0.142 1.283,0c0.352,0.142 0.064,0.259 -0.641,0.259c-0.706,-0 -0.994,-0.117 -0.642,-0.259Zm-57.446,-0.536c0.638,-0.123 1.561,-0.118 2.052,0.01c0.49,0.129 -0.032,0.229 -1.161,0.223c-1.128,-0.005 -1.529,-0.11 -0.891,-0.233l-0,0Zm38.723,0.009c0.494,-0.129 1.302,-0.129 1.795,0c0.494,0.129 0.09,0.235 -0.897,0.235c-0.988,-0 -1.392,-0.106 -0.898,-0.235Z" style="fill:#fdd31e;fill-rule:nonzero;"/><path id="path5" d="M467.141,600.757c3.739,-0.088 9.856,-0.088 13.594,0c3.738,0.088 0.68,0.159 -6.797,0.159c-7.476,0 -10.535,-0.071 -6.797,-0.159Zm-27.444,-0.483c0.494,-0.129 1.302,-0.129 1.796,-0c0.494,0.129 0.09,0.234 -0.898,0.234c-0.987,0 -1.391,-0.105 -0.898,-0.234Zm66.174,-0c0.493,-0.129 1.301,-0.129 1.795,-0c0.494,0.129 0.09,0.234 -0.898,0.234c-0.987,0 -1.391,-0.105 -0.897,-0.234Zm-78.741,-0.499c0.352,-0.143 0.929,-0.143 1.282,-0c0.353,0.142 0.064,0.259 -0.641,0.259c-0.705,-0 -0.994,-0.117 -0.641,-0.259Zm92.334,-0c0.353,-0.143 0.93,-0.143 1.283,-0c0.353,0.142 0.064,0.259 -0.641,0.259c-0.706,-0 -0.994,-0.117 -0.642,-0.259Zm-102.594,-0.513c0.353,-0.142 0.93,-0.142 1.283,-0c0.352,0.142 0.064,0.259 -0.641,0.259c-0.706,-0 -0.994,-0.117 -0.642,-0.259Zm112.341,-0c0.353,-0.142 0.93,-0.142 1.282,-0c0.353,0.142 0.064,0.259 -0.641,0.259c-0.705,-0 -0.994,-0.117 -0.641,-0.259Zm-120.003,-0.524c0.37,-0.148 0.813,-0.13 0.983,0.041c0.17,0.17 -0.133,0.291 -0.673,0.269c-0.598,-0.024 -0.719,-0.146 -0.31,-0.31l-0,0Zm129.236,0.012c0.353,-0.142 0.93,-0.142 1.283,-0c0.352,0.142 0.064,0.259 -0.641,0.259c-0.706,-0 -0.994,-0.117 -0.642,-0.259Zm-136.931,-0.524c0.371,-0.148 0.813,-0.13 0.983,0.041c0.171,0.17 -0.132,0.291 -0.673,0.269c-0.597,-0.025 -0.719,-0.146 -0.31,-0.31l0,0Zm-6.155,-0.513c0.37,-0.148 0.812,-0.13 0.983,0.041c0.17,0.17 -0.133,0.291 -0.673,0.269c-0.598,-0.025 -0.72,-0.146 -0.31,-0.31l-0,0Zm157.995,0c0.37,-0.148 0.812,-0.13 0.983,0.041c0.17,0.17 -0.133,0.291 -0.674,0.269c-0.597,-0.025 -0.719,-0.146 -0.309,-0.31l-0,0Zm-140.715,-6.113c-70.917,-1.749 -132.521,-10.653 -180.979,-26.157c-3.049,-0.975 -5.761,-1.639 -6.027,-1.474c-0.267,0.165 -0.484,0.03 -0.484,-0.299c-0,-0.33 -0.358,-0.461 -0.797,-0.293c-0.516,0.198 -0.668,0.099 -0.432,-0.282c0.246,-0.398 0.013,-0.497 -0.719,-0.305c-0.594,0.155 -1.153,0.066 -1.242,-0.199c-0.088,-0.264 -0.676,-0.52 -1.307,-0.567c-0.63,-0.048 -1.146,-0.293 -1.146,-0.545c-0,-0.253 -0.331,-0.332 -0.736,-0.177c-0.405,0.156 -0.809,0.072 -0.898,-0.186c-0.089,-0.258 -0.623,-0.541 -1.187,-0.628c-0.565,-0.086 -1.315,-0.338 -1.668,-0.558c-0.352,-0.22 -0.644,-0.213 -0.649,0.016c-0.004,0.228 -0.187,0.132 -0.407,-0.213c-0.219,-0.346 -0.85,-0.715 -1.402,-0.821c-3.552,-0.681 -32.225,-13.194 -31.096,-13.57c0.261,-0.087 3.099,0.447 6.306,1.186c69.478,16.025 160.957,19.897 259.496,10.983c181.172,-16.388 365.505,-72.504 504.25,-153.506c19.858,-11.593 53.544,-33.519 54.289,-35.335c0.094,-0.229 0.556,-0.42 1.026,-0.424c1.624,-0.016 58.716,-12.25 59.079,-12.661c0.2,-0.227 2.111,-6.021 4.247,-12.876l3.883,-12.464l-2.591,-4.336l-2.592,-4.336l-5.257,0.019l6.065,-6.294c24.654,-25.584 41.169,-49.756 49.814,-72.906c2.174,-5.821 5.536,-18.511 5.314,-20.058c-0.141,-0.987 2.123,-1.527 39.331,-9.366c21.714,-4.576 41.565,-8.906 44.115,-9.623c2.549,-0.717 6.794,-2.363 9.433,-3.657c6.001,-2.942 10.762,-7.437 13.525,-12.771c1.555,-3.001 18.355,-54.109 18.355,-55.837c-0,-1.049 -4.749,-8.54 -5.413,-8.54c-0.711,-0 -13.59,2.691 -84.357,17.631c-21.865,4.616 -39.801,8.358 -39.857,8.317c-0.056,-0.042 1.777,-5.896 4.074,-13.009c2.786,-8.63 4.441,-13.014 4.975,-13.177c0.439,-0.134 26.076,-5.569 56.969,-12.078c30.894,-6.509 58.786,-12.526 61.983,-13.371c6.991,-1.848 13.87,-4.537 17.015,-6.651l2.308,-1.551l2.257,2.453c10.173,11.056 16.073,19.408 21.65,30.648c10.513,21.187 13.182,43.571 8.125,68.149c-19.239,93.511 -146.243,202.13 -333.145,284.917c-145.856,64.607 -312.912,105.41 -470.907,115.021c-21.914,1.333 -63.764,2.225 -82.589,1.76l0,0.001Zm-383.541,-3.12c0.37,-0.148 0.812,-0.13 0.983,0.04c0.17,0.171 -0.133,0.292 -0.673,0.27c-0.598,-0.025 -0.72,-0.147 -0.31,-0.31l-0,-0Zm-19.87,-26.624c0.025,-0.597 0.147,-0.719 0.31,-0.31c0.148,0.371 0.13,0.813 -0.04,0.984c-0.171,0.17 -0.292,-0.133 -0.27,-0.674l0,0Zm0.041,-2.778c-0,-0.706 0.116,-0.994 0.259,-0.641c0.142,0.352 0.142,0.929 -0,1.282c-0.143,0.353 -0.259,0.064 -0.259,-0.641Zm110.111,-16.766c0.371,-0.148 0.813,-0.13 0.984,0.041c0.17,0.17 -0.133,0.292 -0.674,0.269c-0.597,-0.024 -0.719,-0.146 -0.31,-0.31l0,0Zm14.588,-7.184c0.494,-0.13 1.302,-0.13 1.795,-0c0.494,0.129 0.09,0.234 -0.897,0.234c-0.988,0 -1.392,-0.105 -0.898,-0.234Zm264.442,-61.053c0.638,-0.123 1.562,-0.118 2.052,0.01c0.491,0.128 -0.031,0.228 -1.16,0.223c-1.128,-0.006 -1.53,-0.111 -0.892,-0.234l0,0.001Zm-7.491,-5.793c0,-0.705 0.116,-0.994 0.259,-0.641c0.142,0.352 0.142,0.93 -0,1.282c-0.143,0.353 -0.259,0.064 -0.259,-0.641Zm256.339,-33.216c-0.638,-0.813 -0.62,-0.832 0.194,-0.193c0.493,0.387 0.897,0.791 0.897,0.897c0,0.422 -0.421,0.151 -1.091,-0.704l-0,0Zm320.287,-59.473c0.494,-0.129 1.302,-0.129 1.796,-0c0.493,0.129 0.089,0.234 -0.898,0.234c-0.988,0 -1.392,-0.105 -0.898,-0.234Zm-34.497,-17.344c0.663,-0.705 1.32,-1.283 1.461,-1.283c0.141,0 -0.285,0.578 -0.948,1.283c-0.663,0.705 -1.32,1.282 -1.461,1.282c-0.141,0 0.285,-0.577 0.948,-1.282Zm291.88,-25.073c0,-0.106 0.404,-0.51 0.898,-0.898c0.814,-0.638 0.832,-0.619 0.194,0.194c-0.671,0.855 -1.092,1.126 -1.092,0.704l0,0Zm-181.551,-7.8c0.025,-0.598 0.146,-0.719 0.31,-0.31c0.148,0.37 0.13,0.813 -0.04,0.983c-0.171,0.171 -0.292,-0.132 -0.27,-0.673l0,0Zm203.865,-14.577c0.511,-0.564 1.044,-1.026 1.185,-1.026c0.142,0 -0.161,0.462 -0.672,1.026c-0.51,0.564 -1.043,1.026 -1.185,1.026c-0.141,0 0.162,-0.462 0.672,-1.026Zm4.874,-5.323c-0,-0.107 0.404,-0.511 0.897,-0.898c0.814,-0.638 0.832,-0.62 0.194,0.194c-0.67,0.854 -1.091,1.126 -1.091,0.704l-0,-0Zm-1165.85,-45.302c0.493,-0.129 1.301,-0.129 1.795,0c0.494,0.13 0.09,0.235 -0.898,0.235c-0.987,-0 -1.391,-0.105 -0.897,-0.235Zm20.984,-8.879c0,-0.706 0.117,-0.994 0.259,-0.642c0.142,0.353 0.142,0.93 0,1.283c-0.142,0.352 -0.259,0.064 -0.259,-0.641Zm852.476,-11.446c0,-0.089 0.751,-0.839 1.668,-1.668l1.667,-1.506l-1.507,1.667c-1.404,1.554 -1.828,1.903 -1.828,1.507Zm5.13,-5.226c0.663,-0.705 1.32,-1.282 1.461,-1.282c0.142,-0 -0.285,0.577 -0.948,1.282c-0.663,0.705 -1.32,1.282 -1.461,1.282c-0.141,0 0.286,-0.577 0.948,-1.282Zm-511.303,-7.792c0.493,-0.129 1.301,-0.129 1.795,0c0.494,0.129 0.09,0.235 -0.898,0.235c-0.987,-0 -1.391,-0.106 -0.897,-0.235Zm17.442,-10.675c0.005,-1.129 0.111,-1.53 0.233,-0.892c0.123,0.638 0.118,1.562 -0.01,2.052c-0.128,0.491 -0.229,-0.031 -0.223,-1.16l-0,0Zm-147.214,-6.255c0.499,-0.13 1.192,-0.121 1.539,0.02c0.347,0.14 -0.061,0.247 -0.908,0.236c-0.846,-0.009 -1.13,-0.125 -0.631,-0.255l-0,-0.001Zm561.565,-5.543c0.957,-0.988 1.855,-1.796 1.996,-1.796c0.141,0 -0.526,0.808 -1.483,1.796c-0.957,0.987 -1.856,1.795 -1.997,1.795c-0.141,0 0.527,-0.808 1.484,-1.795Zm427.345,-17.997c0.024,-0.598 0.146,-0.719 0.31,-0.31c0.148,0.37 0.13,0.813 -0.041,0.983c-0.17,0.171 -0.292,-0.132 -0.269,-0.673l-0,-0Zm-0,-13.337c0.024,-0.598 0.146,-0.719 0.31,-0.31c0.148,0.37 0.13,0.813 -0.041,0.983c-0.17,0.17 -0.292,-0.133 -0.269,-0.673l-0,-0Zm-868.46,-3.078c0.025,-0.598 0.147,-0.719 0.31,-0.31c0.149,0.37 0.13,0.813 -0.04,0.983c-0.171,0.171 -0.292,-0.132 -0.27,-0.673l0,-0Zm556.061,-0c0.024,-0.598 0.146,-0.719 0.31,-0.31c0.148,0.37 0.129,0.813 -0.041,0.983c-0.17,0.171 -0.292,-0.132 -0.269,-0.673l-0,-0Zm-718.029,-6.159c0,-0.373 0.185,-0.564 0.412,-0.424c0.226,0.14 1.977,-0.6 3.89,-1.644c1.913,-1.044 12.063,-6.223 22.555,-11.509c10.492,-5.285 18.924,-9.762 18.739,-9.947c-0.186,-0.186 0.097,-0.171 0.629,0.033c0.724,0.278 0.861,0.201 0.546,-0.308c-0.269,-0.435 -0.221,-0.557 0.134,-0.337c0.65,0.402 3.195,-0.651 3.195,-1.323c0,-0.253 0.231,-0.318 0.513,-0.144c0.283,0.175 0.513,0.073 0.513,-0.226c0,-0.299 0.173,-0.516 0.385,-0.482c1.111,0.175 2.193,-0.147 2.913,-0.867c0.443,-0.443 0.806,-0.648 0.806,-0.454c0,0.194 0.542,-0.004 1.204,-0.437c1.267,-0.83 28.853,-13.035 43.686,-19.328c140.815,-59.741 314.154,-101.804 465.003,-112.838c4.091,-0.299 8.938,-0.66 10.772,-0.802c1.834,-0.141 9.567,-0.597 17.185,-1.012c112.907,-6.154 216.579,4.662 292.158,30.481c14.744,5.036 18.392,6.496 17.148,6.862c-0.556,0.163 -38.402,8.174 -84.102,17.801c-45.7,9.627 -83.123,17.546 -83.161,17.599c-0.038,0.052 -1.381,4.323 -2.985,9.491c-1.604,5.167 -3.119,9.929 -3.367,10.582l-0.451,1.187l-8.738,-2.754c-71.9,-22.66 -169.678,-31.645 -278.342,-25.579c-104.058,5.809 -218.222,26.007 -326.505,57.767c-23.302,6.834 -58.6,18.298 -58.222,18.909c0.141,0.229 -0.241,0.287 -0.849,0.128c-0.825,-0.216 -1.001,-0.118 -0.691,0.383c0.273,0.442 0.215,0.55 -0.166,0.314c-0.682,-0.422 -4.707,0.683 -4.707,1.292c0,0.228 -0.346,0.283 -0.769,0.12c-0.423,-0.162 -0.77,-0.026 -0.77,0.303c0,0.329 -0.24,0.449 -0.535,0.267c-0.294,-0.182 -0.814,-0.111 -1.154,0.158c-0.34,0.268 -3.274,1.357 -6.518,2.419c-5.877,1.924 -27.577,9.921 -35.951,13.248c-3.112,1.237 -4.403,1.551 -4.403,1.071l0,0Zm149.521,-7.23c0.37,-0.148 0.812,-0.129 0.983,0.041c0.17,0.17 -0.133,0.292 -0.674,0.269c-0.597,-0.024 -0.719,-0.146 -0.309,-0.309l-0,-0.001Zm447.31,-1.538c0.37,-0.149 0.813,-0.13 0.983,0.04c0.17,0.171 -0.132,0.292 -0.673,0.27c-0.598,-0.025 -0.719,-0.147 -0.31,-0.31l-0,-0Zm123.309,-1.445c0.01,-0.847 0.125,-1.131 0.255,-0.632c0.131,0.499 0.122,1.192 -0.019,1.539c-0.14,0.347 -0.247,-0.061 -0.236,-0.907l-0,-0Zm-16.475,-6.712c0.025,-0.597 0.147,-0.719 0.31,-0.31c0.148,0.371 0.13,0.813 -0.04,0.984c-0.171,0.17 -0.292,-0.133 -0.27,-0.674l0,0Zm16.475,-1.496c0.01,-0.846 0.125,-1.13 0.255,-0.631c0.131,0.499 0.122,1.191 -0.019,1.539c-0.14,0.347 -0.247,-0.062 -0.236,-0.908l-0,0Zm-17.317,-38.857l-1.506,-1.668l1.667,1.507c1.554,1.404 1.903,1.828 1.506,1.828c-0.088,-0 -0.838,-0.751 -1.667,-1.667Zm-44.714,-2.28c0.499,-0.13 1.191,-0.121 1.538,0.02c0.348,0.14 -0.061,0.247 -0.907,0.236c-0.846,-0.009 -1.131,-0.125 -0.631,-0.255l-0,-0.001Zm9.512,0.006c0.37,-0.148 0.813,-0.13 0.983,0.041c0.17,0.17 -0.133,0.291 -0.673,0.269c-0.598,-0.024 -0.719,-0.146 -0.31,-0.31l-0,0Zm-3.591,-11.285c0.37,-0.148 0.813,-0.13 0.983,0.04c0.171,0.171 -0.132,0.292 -0.673,0.27c-0.598,-0.025 -0.719,-0.146 -0.31,-0.31l0,-0Zm80.023,-3.591c0.371,-0.148 0.813,-0.13 0.984,0.041c0.17,0.17 -0.133,0.291 -0.674,0.269c-0.597,-0.025 -0.719,-0.146 -0.31,-0.31l0,0Zm-327.788,-10.26c0.371,-0.148 0.813,-0.13 0.983,0.04c0.171,0.171 -0.132,0.292 -0.673,0.27c-0.597,-0.025 -0.719,-0.146 -0.31,-0.31l0,-0Zm6.156,-0.513c0.37,-0.148 0.813,-0.13 0.983,0.04c0.17,0.171 -0.132,0.292 -0.673,0.27c-0.598,-0.025 -0.719,-0.146 -0.31,-0.31l-0,-0Zm176.975,-0c0.37,-0.148 0.812,-0.13 0.983,0.04c0.17,0.171 -0.133,0.292 -0.673,0.27c-0.598,-0.025 -0.719,-0.146 -0.31,-0.31l-0,-0Zm-169.794,-0.513c0.371,-0.148 0.813,-0.13 0.984,0.04c0.17,0.171 -0.133,0.292 -0.674,0.27c-0.597,-0.025 -0.719,-0.146 -0.31,-0.31l0,-0Zm7.182,-0.513c0.37,-0.148 0.813,-0.13 0.983,0.041c0.171,0.17 -0.132,0.291 -0.673,0.269c-0.598,-0.025 -0.719,-0.146 -0.31,-0.31l0,0Zm149.787,0c0.371,-0.148 0.813,-0.13 0.984,0.041c0.17,0.17 -0.133,0.291 -0.674,0.269c-0.597,-0.025 -0.719,-0.146 -0.31,-0.31l0,0Zm-141.579,-0.513c0.37,-0.148 0.812,-0.13 0.983,0.041c0.17,0.17 -0.133,0.291 -0.674,0.269c-0.597,-0.025 -0.719,-0.146 -0.309,-0.31l-0,0Zm134.398,0c0.37,-0.148 0.813,-0.13 0.983,0.041c0.17,0.17 -0.133,0.291 -0.673,0.269c-0.598,-0.025 -0.719,-0.146 -0.31,-0.31l-0,0Zm-125.71,-0.502c0.353,-0.143 0.93,-0.143 1.282,-0c0.353,0.142 0.065,0.259 -0.641,0.259c-0.705,-0 -0.994,-0.117 -0.641,-0.259Zm117.502,-0.011c0.371,-0.148 0.813,-0.13 0.984,0.041c0.17,0.17 -0.133,0.291 -0.674,0.269c-0.597,-0.025 -0.719,-0.146 -0.31,-0.31l0,0Zm-106.73,-0.502c0.353,-0.142 0.93,-0.142 1.283,-0c0.352,0.142 0.064,0.259 -0.641,0.259c-0.706,-0 -0.994,-0.117 -0.642,-0.259Zm96.439,-0c0.353,-0.142 0.93,-0.142 1.282,-0c0.353,0.142 0.064,0.259 -0.641,0.259c-0.705,-0 -0.994,-0.117 -0.641,-0.259Zm-82.845,-0.527c0.494,-0.129 1.302,-0.129 1.796,-0c0.493,0.129 0.089,0.235 -0.898,0.235c-0.988,-0 -1.392,-0.106 -0.898,-0.235Zm69.764,-0c0.494,-0.129 1.302,-0.129 1.796,-0c0.493,0.129 0.089,0.235 -0.898,0.235c-0.988,-0 -1.392,-0.106 -0.898,-0.235Zm-43.835,-0.541c2.341,-0.096 6.035,-0.095 8.208,0.001c2.173,0.096 0.258,0.174 -4.256,0.173c-4.514,-0.001 -6.293,-0.079 -3.952,-0.174l0,-0Zm16.648,0.002c1.622,-0.101 4.277,-0.101 5.899,0c1.622,0.102 0.295,0.186 -2.95,0.186c-3.244,-0 -4.572,-0.084 -2.949,-0.186Zm454.363,-5.457c0,-0.106 0.404,-0.51 0.898,-0.897c0.814,-0.639 0.832,-0.62 0.194,0.193c-0.67,0.855 -1.092,1.126 -1.092,0.704l0,0Z" style="fill:#eb2c2a;fill-rule:nonzero;"/><path id="path4" d="M433.157,600.107c-75.621,-3.454 -141.153,-14.371 -198.797,-33.115c-4.837,-1.573 -8.686,-2.97 -8.553,-3.103c0.133,-0.133 2.751,0.561 5.819,1.543c33.503,10.72 76.084,18.768 120.995,22.869c43.208,3.946 97.481,4.415 146.709,1.269c176.794,-11.301 363.156,-61.354 519.377,-139.496c107.778,-53.911 191.296,-116.028 239.397,-178.052c34.798,-44.872 49.323,-88.65 41.68,-125.63c-2.474,-11.97 -8.367,-25.97 -15.545,-36.934l-3.359,-5.13l2.836,3.078c4.082,4.43 10.875,13.582 14.277,19.237c11.279,18.743 16.386,39.758 14.741,60.658c-4.275,54.33 -46.534,115.079 -121.963,175.329c-120.049,95.89 -307.128,176.724 -498.564,215.419c-58.163,11.757 -104.328,17.803 -163.124,21.364c-15.279,0.925 -80.528,1.397 -95.926,0.694Zm-413.689,-11.828c-3.402,-0.605 -7.386,-2.38 -9.662,-4.305c-0.929,-0.786 -3.17,-3.651 -4.98,-6.366c-4.837,-7.258 -5.664,-11.298 -4.122,-20.131c0.468,-2.683 18.693,-59.123 48.476,-150.125c26.249,-80.205 47.725,-146.051 47.725,-146.325c-0,-0.275 -1.351,-0.499 -3.003,-0.499c-1.651,-0 -4.418,-0.148 -6.148,-0.329c-3.077,-0.321 -3.181,-0.383 -4.73,-2.797l-1.584,-2.468l4.19,-13.233c2.304,-7.279 4.241,-13.288 4.304,-13.354c0.211,-0.22 99.986,-21.247 105.461,-22.225c17.154,-3.065 25.373,0.428 35.258,14.985c2.041,3.005 17.353,28.859 34.027,57.453c16.674,28.594 30.477,52.156 30.673,52.362c0.332,0.348 38.702,-115.685 39.387,-119.106l0.312,-1.559l-3.84,-0c-7.172,-0 -8.151,-0.301 -9.979,-3.064l-1.618,-2.445l4.111,-13.019c2.261,-7.161 4.282,-13.201 4.491,-13.422c0.357,-0.378 90.195,-19.471 98.528,-20.94c2.116,-0.373 6.733,-0.674 10.259,-0.668c10.084,0.017 13.45,1.784 18.948,9.949c4.183,6.21 4.883,8.533 4.471,14.825c-0.18,2.739 -0.701,6.078 -1.158,7.42c-0.457,1.342 -0.748,2.514 -0.645,2.606c0.102,0.091 13.92,-2.68 30.707,-6.158c117.921,-24.434 206.94,-42.794 207.431,-42.784c0.319,0.008 1.679,1.878 3.023,4.158l2.445,4.146l-4.173,13.924c-7.338,24.49 -10.879,33.765 -15.6,40.867c-4.991,7.508 -12.256,12.175 -24.358,15.651c-3.527,1.013 -25.908,5.753 -49.735,10.533c-23.828,4.78 -43.486,8.863 -43.685,9.073c-0.554,0.585 -8.305,24.763 -8.027,25.041c0.133,0.134 23.634,-4.843 52.224,-11.059c28.589,-6.217 52.145,-11.127 52.347,-10.912c0.201,0.215 1.391,2.138 2.645,4.273l2.279,3.883l-9.162,26.126c-5.039,14.369 -10,27.857 -11.026,29.973c-2.656,5.483 -8.122,10.821 -14.022,13.694c-6.112,2.977 -9.09,3.74 -49.758,12.756c-19.89,4.41 -38.243,8.681 -40.783,9.491c-7.617,2.43 -11.118,5.123 -13.666,10.513c-1.413,2.988 -13.263,38.685 -13.263,39.953c-0,0.589 70.048,-13.829 89.77,-18.478c18.119,-4.272 22.06,-6.219 28.306,-13.987c1.737,-2.16 3.302,-4.098 3.478,-4.308c0.176,-0.209 4.669,-1.298 9.984,-2.419c5.315,-1.121 9.744,-2.118 9.842,-2.216c0.098,-0.098 13.427,-40.56 29.619,-89.916l29.441,-89.738l-3.02,-0.307c-1.661,-0.169 -3.107,-0.4 -3.212,-0.513c-0.105,-0.113 -1.281,-2.008 -2.613,-4.211l-2.422,-4.005l3.964,-12.666c2.18,-6.967 4.031,-12.741 4.112,-12.832c0.081,-0.091 10.961,-2.441 24.178,-5.223c13.216,-2.782 54.269,-11.438 91.229,-19.236c99.171,-20.923 97.583,-20.63 114.648,-21.13c13.703,-0.401 21.706,0.783 30.451,4.504c7.886,3.356 15.689,10.222 19.481,17.141c1.082,1.975 3.071,5.368 4.419,7.54c2.521,4.061 4.65,9.941 5.721,15.8c0.974,5.333 0.71,19.263 -0.495,26.152c-0.567,3.24 -0.973,5.948 -0.903,6.018c0.071,0.071 4.589,-13.544 10.042,-30.256c5.452,-16.711 10.013,-30.652 10.135,-30.979c0.122,-0.327 -0.274,-0.752 -0.879,-0.944c-0.605,-0.192 -2.385,-1.396 -3.957,-2.676c-3.113,-2.535 -6.104,-3.61 -22.461,-8.064c-44.375,-12.086 -92.769,-18.93 -154.917,-21.908c-16.399,-0.786 -67.148,-0.783 -85.153,0.005c-72.933,3.192 -128.612,10.044 -238.532,29.354c-68.698,12.068 -124.468,24.356 -169.023,37.242c-14.546,4.207 -15.003,4.3 -7.182,1.465c11.308,-4.1 39.739,-13.179 58.479,-18.675c84.805,-24.873 172.571,-42.561 258.537,-52.103c66.87,-7.423 135.527,-9.415 195.185,-5.663c57.34,3.606 109.325,12.405 151.125,25.578l8.738,2.754l0.451,-1.187c0.248,-0.653 1.763,-5.415 3.367,-10.582c1.604,-5.168 2.947,-9.439 2.986,-9.492c0.062,-0.085 55.092,-11.699 220.828,-46.602c27.478,-5.787 50.016,-10.459 50.086,-10.382c0.649,0.724 4.856,8.093 4.856,8.507c0,0.299 -3.235,11.004 -7.189,23.789c-4.65,15.035 -7.922,24.716 -9.263,27.408c-4.956,9.95 -13.082,15.503 -28.745,19.644c-3.214,0.85 -31.12,6.87 -62.014,13.379c-30.893,6.509 -56.53,11.944 -56.969,12.079c-0.534,0.162 -2.189,4.546 -4.975,13.177c-2.297,7.113 -4.13,12.967 -4.074,13.008c0.056,0.042 17.992,-3.701 39.857,-8.317c70.767,-14.939 83.646,-17.631 84.357,-17.631c0.664,-0 5.413,7.491 5.413,8.54c-0,1.728 -16.8,52.836 -18.355,55.838c-2.764,5.336 -7.524,9.829 -13.525,12.768c-2.639,1.293 -6.842,2.93 -9.34,3.639c-2.499,0.708 -23.274,5.22 -46.168,10.025c-22.893,4.805 -44.241,9.302 -47.439,9.994c-13.719,2.966 -20.473,6.749 -23.807,13.332c-0.562,1.109 -23.704,72.13 -27.287,83.742c-0.34,1.099 -0.224,1.154 2.435,1.154l2.791,0l2.591,4.336l2.591,4.335l-3.979,12.692c-3.543,11.301 -4.115,12.737 -5.219,13.096c-0.683,0.222 -13.937,3.07 -29.454,6.329c-15.518,3.259 -35.874,7.534 -45.236,9.5c-13.771,2.892 -17.899,3.574 -21.619,3.574c-7.335,0 -12.744,-2.104 -15.696,-6.105l-1.161,-1.573l-1.923,2.792c-4.961,7.204 -12.599,11.783 -24.757,14.841c-8.757,2.202 -46.83,10.08 -52.72,10.909c-15.863,2.23 -25.668,-2.142 -32.743,-14.6c-1.235,-2.176 -2.973,-5.109 -3.863,-6.52c-0.889,-1.411 -9.34,-20.079 -18.781,-41.484c-9.44,-21.406 -17.237,-38.993 -17.327,-39.083c-0.245,-0.244 -12.396,2.392 -12.8,2.777c-0.191,0.182 -6.744,19.837 -14.562,43.677c-7.819,23.841 -14.32,43.624 -14.447,43.964c-0.164,0.439 0.857,0.662 3.516,0.77l3.748,0.151l2.422,3.848c1.333,2.116 2.437,4.175 2.455,4.576c0.024,0.563 -9.991,25.607 -10.416,26.044c-0.133,0.137 -73.917,15.714 -84.965,17.938c-14.672,2.952 -21.547,2.098 -26.854,-3.338l-1.975,-2.022l-2.656,3.127c-5.158,6.073 -13.607,10.467 -26.224,13.639c-3.386,0.851 -28.086,6.163 -54.888,11.805c-26.803,5.642 -71.816,15.153 -100.03,21.135c-49.571,10.512 -51.495,10.878 -57.196,10.892c-4.944,0.011 -6.38,-0.175 -8.872,-1.153c-3.896,-1.529 -8.046,-5.538 -9.344,-9.026c-0.525,-1.411 -1.637,-3.361 -2.472,-4.335c-3.563,-4.154 -4.609,-9.615 -3.226,-16.837c0.448,-2.334 17.798,-56.096 38.557,-119.472c29.275,-89.374 37.593,-115.325 37.071,-115.656c-0.37,-0.234 -1.757,-0.43 -3.081,-0.434c-2.279,-0.008 -2.476,-0.123 -3.692,-2.163l-1.285,-2.155l-0.539,1.418c-0.297,0.779 -22.275,67.942 -48.84,149.249c-26.565,81.307 -48.458,148.014 -48.65,148.236c-0.472,0.547 -52.161,11.438 -59.25,12.484c-3.746,0.552 -7.28,0.737 -10.516,0.549c-11.574,-0.672 -17.421,-5.007 -27.454,-20.359c-2.86,-4.375 -21.201,-35.597 -40.758,-69.383c-19.558,-33.785 -35.712,-61.428 -35.899,-61.428c-0.44,-0 -50.228,151.554 -49.827,151.674c0.167,0.051 2.959,0.243 6.205,0.428l5.901,0.336l1.603,2.421l1.602,2.422l-4.186,13.265c-3.254,10.312 -4.41,13.359 -5.195,13.689c-1.098,0.461 -85.905,18.362 -94.515,19.95c-6.488,1.197 -14.82,1.63 -18.557,0.966l0,-0Zm10.555,-20.248c8.416,-1.465 89.104,-18.659 89.474,-19.067c0.634,-0.699 2.15,-5.841 1.819,-6.171c-0.173,-0.174 -1.839,-0.5 -3.702,-0.724c-6.474,-0.779 -8.415,-3.082 -8.367,-9.923c0.015,-2.257 0.431,-5.604 0.924,-7.438c1.929,-7.186 58.291,-177.951 58.619,-177.602c0.191,0.204 20.132,34.534 44.312,76.29c24.181,41.756 45.192,77.777 46.691,80.047c6.49,9.823 12.075,12.492 23.087,11.035c5.442,-0.721 53.164,-10.688 53.674,-11.211c0.194,-0.198 21.964,-66.495 48.379,-147.326c26.415,-80.832 50.526,-154.584 53.58,-163.895c6.072,-18.511 6.68,-21.164 5.497,-23.995c-1.104,-2.642 -2.845,-3.566 -7.252,-3.849c-6.134,-0.394 -5.805,-0.455 -73.108,13.718c-14.812,3.119 -27.395,5.87 -27.961,6.112c-0.63,0.27 -1.264,1.313 -1.632,2.689c-0.332,1.236 -0.747,2.62 -0.923,3.076c-0.265,0.687 0.226,0.89 2.893,1.191c6.134,0.694 8.344,2.453 9.258,7.366c0.901,4.846 -0.182,9.033 -10.364,40.058c-5.057,15.408 -15.72,47.905 -23.695,72.216c-7.975,24.31 -14.645,44.111 -14.821,44.002c-0.177,-0.109 -17.723,-30.006 -38.991,-66.438c-21.269,-36.432 -39.715,-67.537 -40.992,-69.122c-1.277,-1.585 -3.456,-3.582 -4.841,-4.437c-2.466,-1.522 -2.654,-1.554 -8.967,-1.518c-6.367,0.037 -7.077,0.17 -55.438,10.407c-26.944,5.703 -49.364,10.483 -49.823,10.621c-0.721,0.218 -2.917,6.224 -2.411,6.594c0.092,0.067 1.881,0.377 3.974,0.689c4.254,0.632 6.021,1.657 7.35,4.262c1.118,2.193 1.191,8.15 0.153,12.549c-0.402,1.702 -22.092,68.367 -48.201,148.144c-26.109,79.776 -47.849,146.915 -48.311,149.197c-1.393,6.874 -0.328,10.488 3.619,12.281c2.656,1.207 10.104,1.284 16.497,0.172l0,-0Zm412.881,-102.371c135.202,-28.441 163.718,-34.506 168.767,-35.892c11.861,-3.256 17.805,-7.504 21.754,-15.547c1.872,-3.812 16.183,-47.445 15.715,-47.913c-0.109,-0.109 -1.513,0.075 -3.12,0.409c-2.755,0.572 -3.221,0.91 -8.12,5.876c-4.587,4.652 -5.769,5.547 -10.071,7.627c-5.733,2.774 -13.504,5.084 -26.93,8.009c-24.207,5.272 -111.335,23.51 -111.509,23.341c-0.359,-0.349 21.102,-65.598 22.823,-69.389c4.049,-8.921 9.641,-13.517 20.973,-17.237c2.257,-0.741 20.724,-5.038 41.038,-9.548c37.635,-8.356 43.736,-9.893 48.158,-12.134c3.012,-1.526 7.022,-5.418 8.433,-8.185c1.219,-2.388 13.139,-36.046 12.855,-36.298c-0.107,-0.095 -25.356,5.305 -56.109,12c-30.752,6.694 -55.979,12.009 -56.059,11.811c-0.162,-0.404 19.122,-59.42 19.558,-59.856c0.153,-0.153 20.778,-4.406 45.833,-9.452c25.056,-5.046 48.315,-9.875 51.688,-10.731c16.575,-4.208 20.852,-9.185 28.745,-33.451c2.12,-6.517 3.783,-11.919 3.697,-12.006c-0.13,-0.13 -202.909,41.665 -214.686,44.25c-3.984,0.874 -4.317,1.199 -5.068,4.937c-0.253,1.259 -0.135,1.411 1.093,1.411c2.55,0 5.841,1.118 7.037,2.391c0.973,1.036 1.223,1.958 1.382,5.096c0.106,2.106 -0.071,4.92 -0.395,6.251c-0.323,1.331 -18.102,55.975 -39.507,121.43c-21.406,65.455 -39.178,120.561 -39.494,122.458c-0.468,2.816 -0.438,3.773 0.165,5.216c1.183,2.832 4.249,4.016 9.29,3.589c1.693,-0.144 20.621,-3.952 42.064,-8.463l-0,0Zm219.551,-45.862c2.539,-0.424 22.391,-4.521 44.115,-9.103l39.499,-8.331l1.133,-2.308c1.579,-3.216 1.501,-3.59 -0.748,-3.594c-2.96,-0.004 -5.621,-0.927 -6.727,-2.333c-1.452,-1.846 -1.802,-5.524 -0.925,-9.732c0.721,-3.454 33.511,-104.248 34.16,-105.004c0.176,-0.204 6.431,-1.654 13.901,-3.222c7.469,-1.568 13.95,-2.964 14.401,-3.101c0.655,-0.2 5.032,9.303 21.8,47.337c11.539,26.174 21.673,48.619 22.52,49.88c1.867,2.777 5.249,5.43 7.837,6.149c3.145,0.873 11.397,0.625 17.402,-0.524c12.739,-2.436 44.423,-9.277 48.665,-10.506c9.737,-2.822 14.827,-6.556 18.087,-13.271c1.77,-3.646 12.655,-36.122 12.245,-36.532c-0.128,-0.128 -4.827,0.701 -10.443,1.842c-11.838,2.406 -16.153,2.626 -19.519,0.996c-1.226,-0.593 -2.779,-1.805 -3.453,-2.693c-1.359,-1.791 -34.142,-58.733 -34.142,-59.302c-0,-0.197 3.751,-1.576 8.336,-3.064c27.883,-9.053 44.47,-18.358 59.413,-33.329c18.882,-18.918 31.089,-41.731 35.435,-66.223c1.069,-6.02 0.903,-20.938 -0.282,-25.392c-1.586,-5.965 -3.775,-9.879 -7.746,-13.85c-9.364,-9.364 -24.282,-12.218 -48.264,-9.236c-9.828,1.223 -19.055,2.975 -49.89,9.476c-132.15,27.86 -158.293,33.359 -158.594,33.359c-0.19,0 -0.628,0.948 -0.975,2.106c-0.347,1.158 -0.743,2.396 -0.879,2.751c-0.171,0.446 0.596,0.758 2.467,1.007c3.315,0.439 5.587,1.466 6.507,2.94c1.119,1.791 1.28,6.474 0.36,10.433c-0.459,1.975 -18.361,57.029 -39.781,122.343c-41.779,127.391 -40.956,124.675 -38.77,128.012c1.835,2.8 5.112,3.315 12.855,2.019Zm123.877,-182.17c-0.004,-0.347 22.053,-68.311 22.324,-68.788c0.184,-0.323 56.613,-11.981 61.552,-12.717c6.969,-1.039 16.041,-1.174 19.612,-0.293c3.46,0.854 6.475,3.061 7.946,5.816c1.068,2 1.165,2.823 1.127,9.625c-0.033,5.994 -0.265,8.285 -1.197,11.798c-2.381,8.974 -6.285,15.476 -13.333,22.207c-7.345,7.015 -17.168,12.532 -30.314,17.024c-9.345,3.194 -15.262,4.639 -42.296,10.329c-12.709,2.675 -23.627,4.994 -24.261,5.152c-0.635,0.158 -1.157,0.089 -1.16,-0.153l-0,0Zm36.943,-18.655c23.84,-5.083 36.133,-9.348 46.933,-16.283c5.08,-3.262 11.379,-9.813 13.695,-14.243c1.897,-3.63 4.003,-10.204 4.003,-12.498l-0,-1.242l-4.745,0.318c-2.61,0.174 -6.823,0.681 -9.362,1.126c-4.116,0.721 -51.202,10.529 -51.361,10.698c-0.036,0.037 -1.954,5.839 -4.264,12.892c-2.309,7.053 -4.861,14.844 -5.67,17.313c-0.809,2.468 -1.428,4.488 -1.375,4.488c0.052,0 5.518,-1.156 12.146,-2.569Zm186.689,127.766c22.695,-4.814 41.457,-8.752 41.691,-8.752c0.482,-0 1.129,-1.539 1.645,-3.914c0.346,-1.59 0.327,-1.608 -2.114,-1.972c-5.766,-0.86 -7.399,-2.518 -7.438,-7.548c-0.022,-2.879 1.664,-8.468 15.222,-50.431c8.385,-25.957 16.058,-48.905 17.051,-50.998c2.667,-5.623 7.723,-10.504 14.053,-13.567c2.648,-1.281 6.833,-2.91 9.3,-3.619c2.467,-0.709 22.088,-5.001 43.603,-9.539c60.455,-12.751 59.099,-12.432 64.684,-15.228c3.163,-1.584 6.708,-4.847 8.397,-7.729c1.043,-1.78 11.947,-34.647 11.947,-36.011c0,-0.19 -29.836,5.953 -66.301,13.652c-36.466,7.698 -66.441,13.947 -66.61,13.886c-0.45,-0.16 19.281,-60.554 19.842,-60.733c0.548,-0.176 36.37,-7.766 76.905,-16.296c49.401,-10.395 53.004,-11.27 59.564,-14.469c4.696,-2.289 8.36,-5.829 10.402,-10.046c2.069,-4.272 10.36,-31.169 9.609,-31.17c-0.318,-0.001 -33.01,6.837 -72.65,15.195c-39.64,8.359 -94.695,19.966 -122.344,25.793l-50.271,10.596l-0.859,2.55l-0.859,2.55l1.372,0.362c0.755,0.199 2.248,0.5 3.318,0.669c1.071,0.169 2.678,0.96 3.571,1.758c1.475,1.318 1.643,1.78 1.826,5.021c0.146,2.582 -0.106,4.693 -0.909,7.627c-0.611,2.231 -18.408,56.979 -39.549,121.661c-21.14,64.683 -38.702,119.208 -39.025,121.167c-0.762,4.615 -0.107,6.407 2.85,7.799c3.77,1.775 7.637,1.161 52.077,-8.264Zm-66.413,-41.387c7.328,-1.533 13.522,-2.985 13.763,-3.226c0.392,-0.391 35.77,-108.07 35.737,-108.767c-0.008,-0.158 -1.468,2.599 -3.244,6.125c-7.255,14.403 -16.287,26.719 -28.096,38.315c-6.46,6.343 -10.245,9.411 -17.635,14.296c-9.618,6.357 -21.477,12.131 -34.754,16.921c-3.033,1.094 -5.514,2.173 -5.514,2.398c-0,0.225 4.783,8.731 10.629,18.903l10.629,18.495l2.58,-0.336c1.419,-0.185 8.576,-1.591 15.905,-3.124Zm-720.199,257.829c-0.676,-0.291 -0.764,-0.451 -0.256,-0.469c0.423,-0.016 1.115,0.195 1.539,0.469c0.937,0.606 0.127,0.606 -1.283,-0Zm55.915,-399.033c1.4,-1.38 48.367,-24.22 52.578,-25.569c0.424,-0.135 -8.925,4.653 -20.775,10.641c-11.849,5.987 -22.378,11.311 -23.397,11.83c-2.663,1.355 -9.013,3.696 -8.406,3.098Zm56.169,-27.246c0.423,-0.273 1.001,-0.497 1.283,-0.497c0.282,-0 0.166,0.224 -0.257,0.497c-0.423,0.274 -1,0.497 -1.282,0.497c-0.282,0 -0.167,-0.223 0.256,-0.497Z" style="fill:#210800;fill-rule:nonzero;"/></g></g></svg>